<svg xmlns="http://www.w3.org/2000/svg" viewBox="0 0 1200 630" fill="none">
  <defs>
    <linearGradient id="bg" x1="0" y1="0" x2="1200" y2="630" gradientUnits="userSpaceOnUse">
      <stop offset="0%" stop-color="#0a0a0f"/>
      <stop offset="100%" stop-color="#1a1a2e"/>
    </linearGradient>
    <linearGradient id="card" x1="0" y1="0" x2="0" y2="1">
      <stop offset="0%" stop-color="#2a2a3e"/>
      <stop offset="100%" stop-color="#1e1e2e"/>
    </linearGradient>
    <filter id="glow">
      <feGaussianBlur stdDeviation="3" result="coloredBlur"/>
      <feMerge><feMergeNode in="coloredBlur"/><feMergeNode in="SourceGraphic"/></feMerge>
    </filter>
  </defs>
  <rect width="1200" height="630" fill="url(#bg)"/>
  <g stroke="#ffffff08" stroke-width="1">
    <line x1="0" y1="100" x2="1200" y2="100"/><line x1="0" y1="200" x2="1200" y2="200"/>
    <line x1="0" y1="300" x2="1200" y2="300"/><line x1="0" y1="400" x2="1200" y2="400"/>
    <line x1="0" y1="500" x2="1200" y2="500"/>
    <line x1="200" y1="0" x2="200" y2="630"/><line x1="400" y1="0" x2="400" y2="630"/>
    <line x1="600" y1="0" x2="600" y2="630"/><line x1="800" y1="0" x2="800" y2="630"/>
    <line x1="1000" y1="0" x2="1000" y2="630"/>
  </g>
  <text x="600" y="70" font-family="system-ui,sans-serif" font-size="42" font-weight="700" fill="#ffffff" text-anchor="middle" letter-spacing="-1">Singularity</text>
  <text x="600" y="100" font-family="system-ui,sans-serif" font-size="16" fill="#8888aa" text-anchor="middle">Provider-Neutral Agent Harness</text>
  <rect x="50" y="140" width="1100" height="80" rx="8" fill="url(#card)" stroke="#ff6b6b33"/>
  <text x="80" y="165" font-family="system-ui,sans-serif" font-size="13" font-weight="600" fill="#ff6b6b">GATEWAY</text>
  <text x="80" y="185" font-family="system-ui,sans-serif" font-size="11" fill="#888">Telegram · Discord · CLI</text>
  <path d="M600 220 L600 245" stroke="#4a4a6a" stroke-width="2" marker-end="url(#a1)"/>
  <defs><marker id="a1" viewBox="0 0 10 10" refX="5" refY="5" markerWidth="4" markerHeight="4" orient="auto-start-reverse"><path d="M 0 0 L 10 5 L 0 10 z" fill="#4a4a6a"/></marker></defs>
  <rect x="50" y="255" width="800" height="100" rx="8" fill="url(#card)" stroke="#6b6bff33"/>
  <text x="80" y="280" font-family="system-ui,sans-serif" font-size="13" font-weight="600" fill="#6b6bff">SINGULARITY-ENGINE</text>
  <text x="80" y="300" font-family="system-ui,sans-serif" font-size="11" fill="#888">SessionRunner · TurnExecutor · Compaction</text>
  <text x="80" y="320" font-family="monospace" font-size="10" fill="#6b6bff">Max 25 steps · SQLite persistence</text>
  <rect x="470" y="265" width="180" height="70" rx="6" fill="#1a1a2e" stroke="#6b6bff55"/>
  <text x="490" y="290" font-family="system-ui,sans-serif" font-size="11" font-weight="600" fill="#6bffff">SINGULARITY-LLM</text>
  <text x="490" y="308" font-family="monospace" font-size="9" fill="#888">OpenAI · Anthropic</text>
  <text x="490" y="323" font-family="monospace" font-size="9" fill="#888">MiniMax · Router</text>
  <rect x="670" y="265" width="160" height="70" rx="6" fill="#1a1a2e" stroke="#6b6bff55"/>
  <text x="690" y="290" font-family="system-ui,sans-serif" font-size="11" font-weight="600" fill="#ffff6b">SINGULARITY-TOOLS</text>
  <text x="690" y="308" font-family="monospace" font-size="9" fill="#888">Bash · Read · Edit</text>
  <text x="690" y="323" font-family="monospace" font-size="9" fill="#888">Grep · Glob · WebFetch</text>
  <path d="M600 355 L600 380" stroke="#4a4a6a" stroke-width="2" marker-end="url(#a2)"/>
  <defs><marker id="a2" viewBox="0 0 10 10" refX="5" refY="5" markerWidth="4" markerHeight="4" orient="auto-start-reverse"><path d="M 0 0 L 10 5 L 0 10 z" fill="#4a4a6a"/></marker></defs>
  <rect x="50" y="390" width="1100" height="130" rx="8" fill="url(#card)" stroke="#6bff6b33"/>
  <text x="80" y="415" font-family="system-ui,sans-serif" font-size="13" font-weight="600" fill="#6bff6b">SINGULARITY-CORE</text>
  <rect x="80" y="425" width="130" height="70" rx="6" fill="#1a1a2e" stroke="#6bff6b33"/>
  <text x="95" y="448" font-family="system-ui,sans-serif" font-size="10" font-weight="600" fill="#aaa">Memory</text>
  <text x="95" y="464" font-family="monospace" font-size="9" fill="#666">Facts · Sessions</text>
  <text x="95" y="480" font-family="monospace" font-size="9" fill="#666">FTS · Embeddings</text>
  <rect x="230" y="425" width="130" height="70" rx="6" fill="#1a1a2e" stroke="#6bff6b33"/>
  <text x="245" y="448" font-family="system-ui,sans-serif" font-size="10" font-weight="600" fill="#aaa">Skills</text>
  <text x="245" y="464" font-family="monospace" font-size="9" fill="#666">Registry</text>
  <text x="245" y="480" font-family="monospace" font-size="9" fill="#666">Validator · Draft</text>
  <rect x="380" y="425" width="130" height="70" rx="6" fill="#1a1a2e" stroke="#6bff6b33"/>
  <text x="395" y="448" font-family="system-ui,sans-serif" font-size="10" font-weight="600" fill="#aaa">Approvals</text>
  <text x="395" y="464" font-family="monospace" font-size="9" fill="#666">Risk · Policy</text>
  <text x="395" y="480" font-family="monospace" font-size="9" fill="#666">Grant Vault</text>
  <rect x="530" y="425" width="130" height="70" rx="6" fill="#1a1a2e" stroke="#6bff6b33"/>
  <text x="545" y="448" font-family="system-ui,sans-serif" font-size="10" font-weight="600" fill="#aaa">Profiles</text>
  <text x="545" y="464" font-family="monospace" font-size="9" fill="#666">Multi-profile</text>
  <text x="545" y="480" font-family="monospace" font-size="9" fill="#666">SQLite</text>
  <rect x="680" y="425" width="130" height="70" rx="6" fill="#1a1a2e" stroke="#6bff6b33"/>
  <text x="695" y="448" font-family="system-ui,sans-serif" font-size="10" font-weight="600" fill="#aaa">Scheduler</text>
  <text x="695" y="464" font-family="monospace" font-size="9" fill="#666">Cron · Worktree</text>
  <text x="695" y="480" font-family="monospace" font-size="9" fill="#666">Isolation</text>
  <rect x="830" y="425" width="130" height="70" rx="6" fill="#1a1a2e" stroke="#6bff6b33"/>
  <text x="845" y="448" font-family="system-ui,sans-serif" font-size="10" font-weight="600" fill="#aaa">Subagents</text>
  <text x="845" y="464" font-family="monospace" font-size="9" fill="#666">Contract</text>
  <text x="845" y="480" font-family="monospace" font-size="9" fill="#666">Validator</text>
  <rect x="980" y="425" width="130" height="70" rx="6" fill="#1a1a2e" stroke="#6bff6b33"/>
  <text x="995" y="448" font-family="system-ui,sans-serif" font-size="10" font-weight="600" fill="#aaa">Loop</text>
  <text x="995" y="464" font-family="monospace" font-size="9" fill="#666">Evaluator</text>
  <text x="995" y="480" font-family="monospace" font-size="9" fill="#666">Quality Gates</text>
  <text x="950" y="265" font-family="system-ui,sans-serif" font-size="11" fill="#666" text-anchor="end">Providers</text>
  <circle cx="950" cy="290" r="10" fill="#25daa5" filter="url(#glow)"/>
  <circle cx="980" cy="290" r="10" fill="#25daa5" filter="url(#glow)"/>
  <circle cx="1010" cy="290" r="10" fill="#25daa5" filter="url(#glow)"/>
  <text x="950" y="294" font-family="monospace" font-size="7" fill="#000" text-anchor="middle">O</text>
  <text x="980" y="294" font-family="monospace" font-size="7" fill="#000" text-anchor="middle">A</text>
  <text x="1010" y="294" font-family="monospace" font-size="7" fill="#000" text-anchor="middle">M</text>
  <text x="950" y="310" font-family="system-ui" font-size="8" fill="#888" text-anchor="end">OpenAI · Anthropic · MiniMax</text>
  <rect x="50" y="555" width="1100" height="40" rx="6" fill="#1e1e2e"/>
  <text x="130" y="580" font-family="system-ui" font-size="11" fill="#888">9 packages</text>
  <text x="280" y="580" font-family="system-ui" font-size="11" fill="#888">·</text>
  <text x="310" y="580" font-family="system-ui" font-size="11" fill="#888">403 tests</text>
  <text x="430" y="580" font-family="system-ui" font-size="11" fill="#888">·</text>
  <text x="460" y="580" font-family="system-ui" font-size="11" fill="#888">Bun runtime</text>
  <text x="590" y="580" font-family="system-ui" font-size="11" fill="#888">·</text>
  <text x="620" y="580" font-family="system-ui" font-size="11" fill="#888">MIT license</text>
  <text x="1050" y="580" font-family="system-ui" font-size="11" fill="#25daa5" text-anchor="end">github.com/tylerdotai/singularity</text>
</svg>
